<svg width="96" height="84" viewBox="0 0 96 84" fill="none" xmlns="http://www.w3.org/2000/svg">
<path d="M94.4262 36.2099L75.7443 4.64231C74.9083 3.22818 73.7052 2.05438 72.2563 1.23933C70.8074 0.424274 69.1641 -0.00320439 67.492 1.8085e-05H30.1664C28.0968 0.00543499 26.0649 0.540681 24.2732 1.55237C22.4816 2.56405 20.9928 4.01682 19.9556 5.76575L1.27374 37.3333C0.439296 38.7448 0 40.3459 0 41.9756C0 43.6054 0.439296 45.2065 1.27374 46.6179L19.9556 78.232C20.9937 79.9823 22.4839 81.4359 24.2773 82.4477C26.0708 83.4594 28.1047 83.9939 30.1759 83.9977H67.492C69.1576 83.9944 70.7931 83.5638 72.2347 82.7491C73.6764 81.9344 74.8735 80.7641 75.7063 79.3554L94.3881 47.7878C95.4373 46.0319 95.9933 44.0368 95.9999 42.0038C96.0066 39.9709 95.4637 37.9723 94.4262 36.2099ZM6.5788 42.1056L8.68942 38.5682L25.3747 10.2966L35.8327 28.0116C36.3207 28.7567 37.0841 29.2893 37.9641 29.4985C38.844 29.7077 39.7727 29.5774 40.5568 29.1347C41.3408 28.6921 41.9199 27.9711 42.1733 27.122C42.4268 26.2729 42.3351 25.3611 41.9174 24.5763L33.4939 10.2966C32.7956 9.2858 31.864 8.4492 30.7742 7.85415C29.6843 7.2591 28.4666 6.92222 27.2191 6.87061H64.887L47.1749 36.832C46.862 37.3594 46.4128 37.7973 45.8723 38.102C45.3317 38.4067 44.7187 38.5674 44.0946 38.5682H12.9392C11.6542 38.56 10.3897 38.8826 9.27306 39.5036C8.15643 40.1247 7.22713 41.0221 6.5788 42.1056ZM64.887 77.1364H31.4689L41.9269 59.4028C42.183 59.0118 42.3552 58.5743 42.4333 58.1165C42.5115 57.6587 42.4938 57.1902 42.3814 56.7393C42.269 56.2884 42.0642 55.8644 41.7793 55.4929C41.4945 55.1214 41.1355 54.8101 40.7241 54.5778C40.3127 54.3455 39.8573 54.1971 39.3855 54.1414C38.9138 54.0857 38.4353 54.124 37.9791 54.2538C37.5228 54.3837 37.0983 54.6025 36.731 54.897C36.3638 55.1916 36.0614 55.5557 35.8422 55.9675L25.3842 73.7011L23.3021 77.2478C23.8772 76.266 24.2054 75.1649 24.26 74.0351C24.3145 72.9052 24.0938 71.7789 23.6159 70.7486L8.67041 45.4295H44.0946C44.7185 45.4312 45.3312 45.5924 45.8716 45.897C46.412 46.2015 46.8613 46.639 47.1749 47.1657L62.9095 73.7754C63.604 74.772 64.5285 75.5953 65.6085 76.1791C66.6884 76.7629 67.8938 77.0908 69.1273 77.1364H64.887ZM87.6855 45.4388L70.9812 73.7011L53.2311 43.7397C52.9208 43.2112 52.7576 42.6127 52.7576 42.0035C52.7576 41.3943 52.9208 40.7958 53.2311 40.2673L70.9812 10.2966L73.0633 6.7592C72.3667 7.95103 72.0342 9.3127 72.1049 10.6832C72.1757 12.0538 72.6468 13.3759 73.4626 14.4933C74.0616 15.3103 87.7235 38.5589 87.7235 38.5589H66.7029C65.77 38.5589 64.8752 38.9208 64.2155 39.5651C63.5558 40.2093 63.1852 41.0831 63.1852 41.9942C63.1852 42.9053 63.5558 43.7791 64.2155 44.4233C64.8752 45.0676 65.77 45.4295 66.7029 45.4295H83.5308H83.4357C84.7207 45.4378 85.9852 45.1151 87.1019 44.4941C88.2185 43.873 89.1478 42.9756 89.7961 41.8921L87.676 45.4481L87.6855 45.4388Z" fill="white"/>
</svg>